%TF.GenerationSoftware,KiCad,Pcbnew,(5.1.9)-1*%
%TF.CreationDate,2023-02-19T18:33:08+01:00*%
%TF.ProjectId,NANO_Bot,4e414e4f-5f42-46f7-942e-6b696361645f,rev?*%
%TF.SameCoordinates,Original*%
%TF.FileFunction,Soldermask,Bot*%
%TF.FilePolarity,Negative*%
%FSLAX46Y46*%
G04 Gerber Fmt 4.6, Leading zero omitted, Abs format (unit mm)*
G04 Created by KiCad (PCBNEW (5.1.9)-1) date 2023-02-19 18:33:08*
%MOMM*%
%LPD*%
G01*
G04 APERTURE LIST*
%ADD10C,2.100000*%
%ADD11O,1.700000X1.700000*%
G04 APERTURE END LIST*
D10*
%TO.C,SDA*%
X147790000Y-352298000D03*
%TD*%
%TO.C,SDA*%
X142670000Y-352298000D03*
%TD*%
%TO.C,MISO*%
X115580000Y-353210000D03*
%TD*%
%TO.C,MOSI*%
X112800000Y-353180000D03*
%TD*%
%TO.C,SDL*%
X145230000Y-352298000D03*
%TD*%
%TO.C,SDA*%
X140100000Y-352298000D03*
%TD*%
%TO.C,LP*%
X145950000Y-306580000D03*
%TD*%
%TO.C,LP*%
X142920000Y-306530000D03*
%TD*%
%TO.C,MISO*%
X139790000Y-306530000D03*
%TD*%
%TO.C,MOSI*%
X136770000Y-306580000D03*
%TD*%
%TO.C,S1*%
X132080000Y-306324000D03*
X129540000Y-306324000D03*
X127000000Y-306324000D03*
%TD*%
%TO.C,GND*%
G36*
G01*
X115536000Y-309864000D02*
X115536000Y-307864000D01*
G75*
G02*
X115586000Y-307814000I50000J0D01*
G01*
X117586000Y-307814000D01*
G75*
G02*
X117636000Y-307864000I0J-50000D01*
G01*
X117636000Y-309864000D01*
G75*
G02*
X117586000Y-309914000I-50000J0D01*
G01*
X115586000Y-309914000D01*
G75*
G02*
X115536000Y-309864000I0J50000D01*
G01*
G37*
X111506000Y-308864000D03*
%TD*%
%TO.C,A1*%
G36*
G01*
X121101001Y-313495001D02*
X121101001Y-311895001D01*
G75*
G02*
X121151001Y-311845001I50000J0D01*
G01*
X122751001Y-311845001D01*
G75*
G02*
X122801001Y-311895001I0J-50000D01*
G01*
X122801001Y-313495001D01*
G75*
G02*
X122751001Y-313545001I-50000J0D01*
G01*
X121151001Y-313545001D01*
G75*
G02*
X121101001Y-313495001I0J50000D01*
G01*
G37*
D11*
X137191001Y-345715001D03*
X121951001Y-315235001D03*
X137191001Y-343175001D03*
X121951001Y-317775001D03*
X137191001Y-340635001D03*
X121951001Y-320315001D03*
X137191001Y-338095001D03*
X121951001Y-322855001D03*
X137191001Y-335555001D03*
X121951001Y-325395001D03*
X137191001Y-333015001D03*
X121951001Y-327935001D03*
X137191001Y-330475001D03*
X121951001Y-330475001D03*
X137191001Y-327935001D03*
X121951001Y-333015001D03*
X137191001Y-325395001D03*
X121951001Y-335555001D03*
X137191001Y-322855001D03*
X121951001Y-338095001D03*
X137191001Y-320315001D03*
X121951001Y-340635001D03*
X137191001Y-317775001D03*
X121951001Y-343175001D03*
X137191001Y-315235001D03*
X121951001Y-345715001D03*
X137191001Y-312695001D03*
X121951001Y-348255001D03*
X137191001Y-348255001D03*
%TD*%
D10*
%TO.C,J1*%
X111506000Y-350520000D03*
X111506000Y-347980000D03*
X111506000Y-345440000D03*
X111506000Y-342900000D03*
X111506000Y-340360000D03*
X111506000Y-337820000D03*
X111506000Y-335280000D03*
X111506000Y-332740000D03*
X111506000Y-330200000D03*
X111506000Y-327660000D03*
X111506000Y-325120000D03*
X111506000Y-322580000D03*
X111506000Y-320040000D03*
X111506000Y-317500000D03*
X111506000Y-314960000D03*
X111506000Y-312420000D03*
%TD*%
%TO.C,J2*%
X114046000Y-350520000D03*
X114046000Y-347980000D03*
X114046000Y-345440000D03*
X114046000Y-342900000D03*
X114046000Y-340360000D03*
X114046000Y-337820000D03*
X114046000Y-335280000D03*
X114046000Y-332740000D03*
X114046000Y-330200000D03*
X114046000Y-327660000D03*
X114046000Y-325120000D03*
X114046000Y-322580000D03*
X114046000Y-320040000D03*
X114046000Y-317500000D03*
X114046000Y-314960000D03*
X114046000Y-312420000D03*
%TD*%
%TO.C,J3*%
X116650000Y-350530000D03*
X116650000Y-347990000D03*
X116650000Y-345450000D03*
X116650000Y-342910000D03*
X116650000Y-340370000D03*
X116650000Y-337830000D03*
X116650000Y-335290000D03*
X116650000Y-332750000D03*
X116650000Y-330210000D03*
X116650000Y-327670000D03*
X116650000Y-325130000D03*
X116650000Y-322590000D03*
X116650000Y-320050000D03*
X116650000Y-317510000D03*
X116650000Y-314970000D03*
X116650000Y-312430000D03*
%TD*%
%TO.C,J4*%
X142748000Y-348234000D03*
X142748000Y-345694000D03*
X142748000Y-343154000D03*
X142748000Y-340614000D03*
X142748000Y-338074000D03*
X142748000Y-335534000D03*
X142748000Y-332994000D03*
X142748000Y-330454000D03*
X142748000Y-327914000D03*
X142748000Y-325374000D03*
X142748000Y-322834000D03*
X142748000Y-320294000D03*
X142748000Y-317754000D03*
X142748000Y-315214000D03*
X142748000Y-312674000D03*
X142748000Y-310134000D03*
%TD*%
%TO.C,GND*%
X111506000Y-304800000D03*
G36*
G01*
X115536000Y-305800000D02*
X115536000Y-303800000D01*
G75*
G02*
X115586000Y-303750000I50000J0D01*
G01*
X117586000Y-303750000D01*
G75*
G02*
X117636000Y-303800000I0J-50000D01*
G01*
X117636000Y-305800000D01*
G75*
G02*
X117586000Y-305850000I-50000J0D01*
G01*
X115586000Y-305850000D01*
G75*
G02*
X115536000Y-305800000I0J50000D01*
G01*
G37*
%TD*%
M02*
