M48
; DRILL file {KiCad (5.1.9)-1} date 02/19/23 18:33:13
; FORMAT={3:3/ absolute / metric / suppress leading zeros}
; #@! TF.CreationDate,2023-02-19T18:33:13+01:00
; #@! TF.GenerationSoftware,Kicad,Pcbnew,(5.1.9)-1
FMAT,2
METRIC,TZ
T1C0.400
T2C1.000
%
G90
G05
T1
X119320Y-306920
X126920Y-309110
X128680Y-344830
X129240Y-321640
X131630Y-318340
X132580Y-345520
X134280Y-311910
X135160Y-318640
T2
X111506Y-304800
X111506Y-308864
X111506Y-312420
X111506Y-314960
X111506Y-317500
X111506Y-320040
X111506Y-322580
X111506Y-325120
X111506Y-327660
X111506Y-330200
X111506Y-332740
X111506Y-335280
X111506Y-337820
X111506Y-340360
X111506Y-342900
X111506Y-345440
X111506Y-347980
X111506Y-350520
X112800Y-353180
X114046Y-312420
X114046Y-314960
X114046Y-317500
X114046Y-320040
X114046Y-322580
X114046Y-325120
X114046Y-327660
X114046Y-330200
X114046Y-332740
X114046Y-335280
X114046Y-337820
X114046Y-340360
X114046Y-342900
X114046Y-345440
X114046Y-347980
X114046Y-350520
X115580Y-353210
X116586Y-304800
X116586Y-308864
X116650Y-312430
X116650Y-314970
X116650Y-317510
X116650Y-320050
X116650Y-322590
X116650Y-325130
X116650Y-327670
X116650Y-330210
X116650Y-332750
X116650Y-335290
X116650Y-337830
X116650Y-340370
X116650Y-342910
X116650Y-345450
X116650Y-347990
X116650Y-350530
X121951Y-312695
X121951Y-315235
X121951Y-317775
X121951Y-320315
X121951Y-322855
X121951Y-325395
X121951Y-327935
X121951Y-330475
X121951Y-333015
X121951Y-335555
X121951Y-338095
X121951Y-340635
X121951Y-343175
X121951Y-345715
X121951Y-348255
X127000Y-306324
X129540Y-306324
X132080Y-306324
X136770Y-306580
X137191Y-312695
X137191Y-315235
X137191Y-317775
X137191Y-320315
X137191Y-322855
X137191Y-325395
X137191Y-327935
X137191Y-330475
X137191Y-333015
X137191Y-335555
X137191Y-338095
X137191Y-340635
X137191Y-343175
X137191Y-345715
X137191Y-348255
X139790Y-306530
X140100Y-352298
X142670Y-352298
X142748Y-310134
X142748Y-312674
X142748Y-315214
X142748Y-317754
X142748Y-320294
X142748Y-322834
X142748Y-325374
X142748Y-327914
X142748Y-330454
X142748Y-332994
X142748Y-335534
X142748Y-338074
X142748Y-340614
X142748Y-343154
X142748Y-345694
X142748Y-348234
X142920Y-306530
X145230Y-352298
X145950Y-306580
X147790Y-352298
T0
M30
